<svg xmlns="http://www.w3.org/2000/svg" width="24.83" height="24.33"><path d="M17.32 24.33h-1.11c-4.9-.58-8.5-2.85-11.11-5.77A19.4 19.4 0 010 6.82V5.46a3.4 3.4 0 011.07-2.09c.65-.66 1.63-1.52 2.52-1.55a3.2 3.2 0 012.23 1.07c.39.53.6 1.59.78 2.37.18.8.6 1.95.48 2.72-.17 1.2-1.76 1.7-2.23 2.57a16.65 16.65 0 007.47 8.35c.85-.47 1.6-1.87 2.77-1.9.43 0 .97.22 1.4.35.48.14.9.32 1.32.48.7.27 1.95.62 2.37 1.21.44.61.68 1.61.58 2.23-.19 1.24-2.22 2.6-3.44 3.06zm-4.79-22.8c5.95 0 10.77 4.82 10.77 10.77h1.53c0-6.8-5.5-12.3-12.3-12.3v1.53z"/><path d="M12.53 9.33v1.55c.78 0 1.42.63 1.42 1.42h1.55a2.97 2.97 0 00-2.97-2.97zm0-3.08a6.05 6.05 0 016.06 6.05h1.58a7.64 7.64 0 00-7.64-7.64v1.59z"/></svg>