<svg xmlns="http://www.w3.org/2000/svg" width="66" height="100.8"><path fill="#FFF" d="M56.33 9.23c-12.89-12.3-33.77-12.3-46.66 0a30.48 30.48 0 000 44.54S32.99 75.6 32.99 100.8c0-25.2 23.34-47.03 23.34-47.03a30.48 30.48 0 000-44.54z"/><path fill="#6BC6B3" d="M47.04 45.52c-.64-3.28.13-6.95.02-10.28-.11-3.76-.71-7.49-.66-11.25.04-3.04.54-6.17-.5-9.09l.19-1c.27-1.46-4.58-.68-5.34.65-.48.4-.72.87-.52 1.34l.14.37c-.92 4.48-2.2 8.83-3.67 13.17-.56 1.67-1.24 3.3-1.81 4.95-.82-1.55-1.64-3.07-2.3-4.73-1.93-4.8-3.66-9.66-6-14.28.26-2.14-4.49-1.92-5.42.04-1.14 2.37-1 4.76-.62 7.3.42 2.86.5 5.67.53 8.55.07 5.57.5 11.12.58 16.69-.5.55-.64 1.23-.12 1.92.22.3.5.54.8.77 1.26 1.01 4.9.15 4.89-1.78-.02-5.77-.44-11.53-.59-17.3l-.03-1.7.24.62c.9 2.24 1.83 4.42 3.06 6.5 1.2 2.08 1.82 4.3 2.52 6.56-.27.3-.42.64-.33.99-.05.25.1.4.35.5.9.77 2.58.38 3.52 0 .4-.18.78-.37 1.15-.6.49-.3 1.24-.95 1.02-1.62l-.12-.4c.66-1.77 1-3.62 1.35-5.5.39-2 1.1-3.89 1.82-5.78l.22 2.6c.28 3.57.04 7.1 0 10.67 0 1.19.08 2.29.31 3.44.1.48.52 2.53.4 2.65-.86.79-.61 1.76.54 2a4.65 4.65 0 003.87-1.03c1.68-1.55.88-3.98.5-5.94z"/></svg>