<svg xmlns="http://www.w3.org/2000/svg" width="100.68" height="76.89" viewBox="247.3 382.56 100.68 76.89"><path fill="#63D1BB" d="M344.25 400.7s-.92-7-3.78-10.07c-3.63-4.04-7.67-4.07-9.54-4.3-13.33-1.02-33.3-1.02-33.3-1.02h-.06s-19.97 0-33.3 1.02c-1.87.23-5.9.26-9.54 4.3-2.84 3.1-3.79 10.08-3.79 10.08s-.9 8.2-.9 16.42v7.7c0 8.2.96 16.42.96 16.42s.92 7 3.78 10.08c3.63 4.04 8.36 3.91 10.49 4.35 7.62.76 32.35 1.02 32.35 1.02s20-.03 33.33-1.05c1.87-.23 5.91-.25 9.54-4.3 2.84-3.07 3.79-10.08 3.79-10.08s.95-8.2.95-16.42v-7.7c-.03-8.23-.98-16.44-.98-16.44z"/><path fill="#FFF" d="M297.61 459.45h-.01c-1.02-.01-24.95-.27-32.6-1.04l-.15-.01-.13-.03c-.27-.06-.67-.1-1.13-.17-2.5-.32-7.16-.93-10.84-5.02-3.35-3.61-4.37-10.77-4.48-11.57v-.05c-.05-.34-.97-8.46-.97-16.73v-7.7c0-8.27.87-16.38.91-16.72l.01-.07c.1-.8 1.16-7.93 4.47-11.56 4-4.44 8.53-4.9 10.72-5.12l.52-.06.13-.01c13.28-1.02 33.31-1.03 33.51-1.03h.06c.2 0 20.23.01 33.51 1.03l.13.01.52.06c2.18.22 6.71.68 10.7 5.11 3.36 3.62 4.39 10.77 4.5 11.58v.04c.04.34.96 8.46.99 16.76v7.7c0 8.28-.93 16.4-.97 16.74v.05c-.11.8-1.16 7.96-4.48 11.56-4 4.44-8.53 4.9-10.71 5.12l-.53.06-.13.01c-13.27 1.02-33.33 1.06-33.53 1.06h-.02zm-31.94-6.5c7.48.73 31.22 1 31.97 1 .66 0 20.13-.05 33.05-1.04l.58-.06c1.83-.19 4.6-.47 7.18-3.33l.03-.03c1.82-1.98 2.85-6.93 3.07-8.55.06-.52.93-8.36.93-16.08v-7.7a167 167 0 00-.95-16.11c-.32-2.38-1.44-6.8-3.07-8.54l-.03-.04c-2.58-2.87-5.36-3.15-7.19-3.34l-.58-.06c-13.07-1-32.83-1-33.03-1h-.05c-.2 0-19.97 0-33.04 1l-.58.06c-1.83.2-4.6.47-7.18 3.34l-.02.02c-1.83 2-2.86 6.93-3.08 8.55a169 169 0 00-.88 16.1v7.7c0 7.74.87 15.59.93 16.07.32 2.39 1.43 6.8 3.06 8.54l.04.04c2.32 2.59 5.3 2.98 7.48 3.26.48.06.94.12 1.36.2z"/><path fill="#FFF" d="M285.73 403.14v35.7L315.48 421z"/></svg>